<?xml version="1.0" encoding="utf-8"?>
<!-- Generator: Adobe Illustrator 24.0.2, SVG Export Plug-In . SVG Version: 6.00 Build 0)  -->
<svg version="1.1" id="f1dc107d-bdd8-43ea-ae8d-fe2fb406b6da"
	 xmlns="http://www.w3.org/2000/svg" xmlns:xlink="http://www.w3.org/1999/xlink" x="0px" y="0px" viewBox="0 0 539 156.5"
	 style="enable-background:new 0 0 539 156.5;" xml:space="preserve">
<style type="text/css">
	.st0{fill:#FFFFFF;}
</style>
<title>logo-martket</title>
<g>
	<path class="st0" d="M114.6,91.2c-19.7,13.9-35,12.7-47.3-3.3c-2,1.9-3.9,3.8-6,5.6c-12.2,10.4-32.4,9.2-44.5,0.5
		C6,86.3,0.6,75.8,0.1,62.6c-0.6-14.7,2-28.5,11-40.5C19.3,10.8,31.8,3.3,45.6,1.3c9.7-1.7,19.7-1.1,29.1,2c1.2,0.3,2.4,0.2,3.5-0.4
		c6.6-3,13.4-2.9,20.3-1.5c2.1,0.4,2.9,1.4,2.5,3.6c-1.3,9.3-2.6,18.6-3.7,27.9c-1.6,12.8-3.1,25.6-4.5,38.4
		c-0.2,1.9-0.1,3.8,0.3,5.7c0.7,4.3,5.7,6.3,10.1,4.1s7.4-6.2,10.1-10.4c4.2-6.4,5.4-13.6,6.2-21c1.2-11.4,2.6-22.8,3.8-34.2
		c0.4-3.8,0.9-7.6,1.2-11.4c0.1-1.5,0.6-2.4,2.2-2.8c6.5-1.4,13.1-1.6,19.5,0.4c2,0.8,3.8,2.1,5.1,3.7c1,1.1,1.7,1.1,2.7,0.5
		c7.6-4.5,16-5.8,24.7-5.5c10.3,0.4,18.2,5.4,24.6,13c10.4,12.3,11.3,26.6,8.4,41.6c-1.3,7.4-4,14.4-7.9,20.9
		c-5.9,9.7-15,17-25.7,20.7c-11,4.1-23,5.3-34.6,3.3c-2-0.4-2.9-0.2-3.2,2.2c-1.5,13.8-3.2,27.6-4.8,41.3c-0.4,3.7-1,7.4-1.4,11.1
		c0.1,1-0.7,1.8-1.7,1.9c-0.1,0-0.3,0-0.4,0c-7.7,0-15.3,0-23,0c-1.7,0-2.2-0.7-2-2.3c2.1-17.6,4.2-35.1,6.3-52.7
		C113.9,98.1,114.2,94.8,114.6,91.2z M28.6,61.3c0.7,3.5,1.6,7,2.7,10.3c2.5,6.9,10.1,10.9,16.9,10.2c10.3-1,17-13.2,18-20.3
		c0.8-5.7,1.3-11.4,1.9-17.1c0.9-7.8,1.8-15.7,2.7-23.5c0.1-1.2,0.1-2.2-1.4-2.7c-12.9-4.5-26.3-0.8-33.5,11.9
		C30.5,39.4,29.5,49.6,28.6,61.3L28.6,61.3z M184.2,43.3l0.6-0.1c-0.9-4.3-1.3-8.7-2.8-12.8c-3.9-11-15.7-14.7-24.5-7.9
		c-5,3.8-8.2,9.4-8.9,15.6c-0.6,4.4-1.2,8.7-1.7,13.1c-0.8,6.3-1.8,12.5-2.2,18.8s2.8,10.1,8.9,11.7c8.9,2.3,17.9-1.6,22.9-9.7
		C182,63.2,183.9,53.5,184.2,43.3L184.2,43.3z"/>
	<path class="st0" d="M263.1,101c-3.5-0.4-6.9-0.8-10.4-1.3c-1.7-0.2-2.7-0.3-2.9,2c-1.7,15.9-3.7,31.8-5.5,47.8
		c-0.8,6.8-0.7,6.8-7.5,6.8c-5.9,0-11.8,0-17.7,0c-2.1,0-2.7-0.6-2.5-2.8c1.7-13.8,3.2-27.6,4.9-41.3c1.4-12.1,2.9-24.2,4.3-36.4
		c1.8-15.4,3.5-30.9,5.2-46.3c1-8.7,1.9-17.3,3-26c0.2-1,0.9-1.8,1.8-2.2c6.5-1.8,13.4-1.7,19.9,0.3c1.9,0.8,3.6,2,4.9,3.6
		c1,1.1,1.6,1.2,2.7,0.5c7.6-4.5,16-5.9,24.7-5.5c10.3,0.4,18.2,5.4,24.6,12.9c10.4,12.3,11.4,26.6,8.4,41.6
		c-1.4,7.9-4.4,15.4-8.7,22.1c-6,9-14.7,15.9-24.9,19.5C279.7,99.4,271.5,100.9,263.1,101z M293.5,43.3c0.1-5.2-0.9-10.4-3.1-15.2
		c-4.3-10-17-11-23.6-5.5c-4.9,3.8-8.1,9.5-8.9,15.6c-0.6,4.4-1.2,8.7-1.7,13.1c-0.8,6.3-1.8,12.5-2.2,18.8s2.7,10,8.7,11.6
		c8.9,2.4,18-1.5,23.2-9.7C291.4,63.2,293.3,53.5,293.5,43.3z"/>
	<path class="st0" d="M384.8,0c20.2,0.2,34.5,7.9,43.1,25c3.7,7.3,3.9,15.2,3.4,23.1c-0.6,8.9-2.4,17.5-7,25.2
		c-10.6,18.1-26.2,27.7-47.5,27.5c-9.8-0.1-19.2-2-27.5-7.5c-12.5-8.3-19-20.2-19.3-35.2c-0.2-11,1.5-21.6,7.1-31.2
		c8.1-14,20.4-22.3,36.1-25.5C377.4,0.6,381.9,0.4,384.8,0z M402.1,50.6c-0.2-10.1-1-17-4.1-23.6c-5.3-11.1-18.1-13.5-26.8-4.8
		c-4.8,4.8-7.5,10.9-9.3,17.4c-2.8,10.4-3.9,20.9,0,31.3c2.5,6.8,6.8,11.6,14.3,12.6c7,0.9,12.5-2,16.7-7.4
		C398.7,68.9,401.9,59.9,402.1,50.6z"/>
	<path class="st0" d="M437.5,53.7c0.1-9.1,2.3-18,6.6-26c8-14.4,20.4-23,36.4-26.2c11.7-2.4,23.3-2.2,34.4,2.9
		c15.4,7.2,25,23.1,24,40.1c-0.5,10.1-2,19.9-7.1,28.7c-10.6,18.4-26.4,27.9-47.9,27.6c-10.3-0.2-19.9-2.4-28.5-8.3
		C443.6,84.2,436.8,70.4,437.5,53.7z M509.6,43.7c-0.6-4.2-1.4-8.3-2.5-12.4c-2-6.8-5.7-12.5-13.4-13.9c-8.2-1.5-14.2,2.3-18.3,8.9
		c-7.2,11.2-10,24.8-7.7,37.9c0.7,4.2,2.2,8.3,4.4,12c5.8,9.7,19.6,10.2,27.5,1C507.3,68.3,509.8,57.5,509.6,43.7z"/>
</g>
</svg>
