<?xml version="1.0" encoding="utf-8"?>
<!-- Generator: Adobe Illustrator 24.0.2, SVG Export Plug-In . SVG Version: 6.00 Build 0)  -->
<svg version="1.1" id="aee9d905-c00c-47db-9a99-0fada1bd6b8e"
	 xmlns="http://www.w3.org/2000/svg" xmlns:xlink="http://www.w3.org/1999/xlink" x="0px" y="0px" viewBox="0 0 539.4 156.7"
	 style="enable-background:new 0 0 539.4 156.7;" xml:space="preserve">
<title>logo</title>
<path d="M114.6,91.2c-7.4,6.2-15.3,10.3-25,9.6c-9.5-0.7-17.5-3.8-22.2-12.8c-2.1,2-4,3.9-6,5.6c-14.6,12.4-41,9.1-53.4-7.7
	c-4.9-6.6-7.6-14.5-7.9-22.7C-0.4,52,0.8,41.2,5.7,31.2C13.8,14.5,27.1,4.6,45.3,1.3c9.9-1.9,20.1-1.2,29.6,1.9
	c1.2,0.3,2.4,0.1,3.5-0.5C85.1-0.3,91.9,0,98.8,1.4c1.8,0.4,2.6,1.3,2.4,3.3c-1.3,9.3-2.5,18.7-3.7,28c-1.6,12.7-3.1,25.4-4.5,38.1
	C92.7,72.4,93,74,93,75.6c-0.2,5,5.1,8.4,10,5.7c3.1-1.8,5.8-4.2,8-7c5.8-7.1,7.9-15.5,8.7-24.5c1-11.4,2.5-22.7,3.8-34
	c0.4-4,0.7-8,1.3-11.9c0.3-1.1,1.1-2,2.1-2.5c6.4-1.7,13.1-1.6,19.5,0.2c2,0.8,3.8,2.1,5.1,3.7c1,1.1,1.6,1.1,2.7,0.5
	c7.6-4.5,16-5.9,24.7-5.5c10.3,0.4,18.2,5.4,24.6,13c10.4,12.3,11.3,26.5,8.4,41.5c-1.4,7.9-4.3,15.4-8.6,22.2
	c-5.9,9-14.5,15.9-24.6,19.5c-11.1,4.3-23.2,5.5-34.9,3.5c-2-0.3-3.1-0.4-3.4,2.2c-1.5,13.7-3.1,27.5-4.8,41.2
	c-0.4,3.6-1,7.3-1.3,10.9c-0.2,1.8-1,2.3-2.7,2.3c-7.3-0.1-14.7-0.1-22,0c-2,0-2.6-0.7-2.3-2.7c2.5-20.4,4.9-40.8,7.3-61.2
	C114.6,92.4,114.6,92,114.6,91.2z M28.5,61.5c0.7,3.4,1.6,6.9,2.7,10.2c2.7,7.1,10.3,11.1,17.6,10.2c9.7-1.3,16.2-12.8,17.3-20.1
	c0.9-5.8,1.3-11.7,2-17.6c0.9-7.8,1.7-15.5,2.6-23.3c0.1-1.3-0.1-2.1-1.5-2.6C56,13.7,42.5,17.8,35.6,30.5
	C30.5,39.7,29.5,49.9,28.5,61.5z M184.3,43.3l0.6-0.1c-0.9-4.2-1.3-8.5-2.7-12.6c-3.9-11.1-15.7-15-24.6-8.1
	c-5,3.8-8.2,9.4-8.9,15.6c-0.6,4.4-1.2,8.7-1.7,13.1c-0.8,6.3-1.8,12.7-2.2,19.1c-0.4,5.9,2.7,9.7,8.4,11.4
	c8.9,2.6,18.3-1.2,23.5-9.4C182.1,63.4,184.1,53.6,184.3,43.3z"/>
<path d="M230.1,156.7c-3.8,0-7.5,0-11.2,0c-1.8,0-2.3-0.7-2.1-2.4c2.5-20.4,4.9-40.8,7.3-61.2c1.8-15.5,3.4-30.9,5.2-46.4
	c1.5-13.2,3.1-26.5,4.6-39.7c0.7-5.7,1-6.2,6.8-6.3c4.8-0.1,9.6,0.2,14.4,1c2.1,0.3,4.2,2,5.7,3.6c1.1,1.2,1.8,1.4,3.1,0.7
	c7.6-4.5,15.9-5.8,24.5-5.4c10.4,0.4,18.3,5.4,24.8,13.1c10.3,12.3,11.2,26.6,8.2,41.5c-1.4,7.7-4.2,15.1-8.4,21.7
	c-5.9,9.3-14.8,16.3-25.2,19.9c-11.1,4.2-23,5.3-34.7,3.3c-2-0.4-2.9-0.1-3.2,2.3c-1.5,13.8-3.2,27.6-4.8,41.4
	c-0.4,3.6-1,7.3-1.3,10.9c-0.2,1.6-0.9,2.1-2.4,2.1C237.6,156.6,233.9,156.7,230.1,156.7z M293.8,43.3l0.6-0.1
	c-0.9-4.2-1.3-8.5-2.7-12.6c-3.9-11.1-15.7-15-24.6-8.1c-5,3.8-8.2,9.4-8.9,15.6c-0.6,4.4-1.2,8.7-1.7,13.1
	c-0.8,6.3-1.8,12.7-2.2,19.1c-0.4,6,2.7,9.8,8.6,11.5c8.9,2.5,18.1-1.3,23.2-9.5C291.6,63.4,293.6,53.6,293.8,43.3z"/>
<path d="M385,0c20.2,0.2,34.5,7.8,43.1,24.8c3.6,7,4,14.7,3.5,22.4c-0.5,9.2-2.4,18.2-7,26.3C414,91.7,398.3,101.2,377,101
	c-9.8-0.1-19.2-2-27.5-7.5c-12.3-8.2-18.7-19.8-19.2-34.6c-0.4-11.2,1.4-22.1,7.2-32c8.1-13.9,20.3-22.2,36-25.4
	C377.7,0.6,382.1,0.4,385,0z M402.9,47.7c-0.9-5.4-1.5-10.8-2.9-16.1s-3.9-9.8-8.8-12.5c-7-4-15.5-2.1-21.3,4.7
	c-3.9,4.7-6.6,10.3-8,16.2c-2.7,10.4-3.8,20.8,0,31.1c2.4,6.1,6,10.9,12.9,12.4c8.3,1.7,14.4-1.7,19.2-8.2
	C400,67.1,402.4,57.8,402.9,47.7L402.9,47.7z"/>
<path d="M492.7,0c20.2,0.3,34.5,7.9,43,24.9c3.7,7.3,4,15.2,3.4,23.2c-0.8,11.1-3.6,21.5-10.2,30.6c-10.5,14.4-24.5,22.1-42.5,22.2
	c-10.9,0.1-21.2-1.8-30.3-8.2c-12.4-8.8-18.3-21-18.3-36.1c0-10.1,1.7-19.9,6.7-28.9c8-14.4,20.4-23,36.4-26.3
	C485.3,0.6,489.8,0.3,492.7,0z M510,45.9c-0.1-1.5-0.2-3-0.3-4.5c-0.4-5.3-1.8-10.5-4.2-15.3c-3.6-7-10.5-10.4-18.1-8.7
	c-5.2,1.1-8.9,4.5-11.6,8.8c-7.2,11.4-9.5,24-7.9,37.3c0.6,3.5,1.6,6.9,3.1,10.2c4.5,11.5,20.3,14.2,29.2,3.6
	C507.6,68.2,510.2,57.5,510,45.9z"/>
</svg>
